<svg width="512" height="512" viewBox="0 0 512 512" fill="none" xmlns="http://www.w3.org/2000/svg">
<g clip-path="url(#clip0)">
<path d="M59.8454 170.425C78.9553 132.205 110.822 112.003 152 112.003C184.286 112.003 213.915 119.743 233.084 126.235C246.534 130.792 261.368 131.312 275.592 127.259C282.812 125.237 317.53 112.003 359.999 112.003C401.177 112.003 433.043 132.205 452.153 170.425C470.064 206.246 471.998 247.799 471.998 264.002C471.998 349.486 404.881 512.001 311.999 512.001C300.045 512.001 287.184 509.577 273.77 504.795C262.311 500.705 249.689 500.705 238.226 504.796C224.815 509.577 211.955 512.001 200 512.001C106.635 512.001 40.0006 348.491 40.0006 264.002C40.0016 247.799 41.9345 206.246 59.8454 170.425V170.425Z" fill="#A9E2A1"/>
<path d="M241.052 149.136C238.803 148.289 237.945 147.788 234.234 146.189C232.944 145.633 232.095 143.979 232.17 142.159C232.393 136.756 232.307 130.543 232.307 102.403C232.307 87.5004 228.652 72.731 222.006 60.8009L218.935 55.2824C211.556 42.0593 212.557 23.2643 221.233 11.5875L223.313 8.76157C232.674 -3.83638 248.137 -2.70868 256.415 11.2409C286.191 61.3448 278.689 109.69 279.996 142.231C280.067 144.013 279.238 145.63 277.981 146.198C270.425 149.609 257.831 155.582 241.052 149.136Z" fill="white"/>
<path d="M364.869 76.2431C346.63 91.6491 322.855 96.5341 298.91 95.9771C297.285 95.9391 295.998 94.5861 296.005 92.9611C296.087 72.3151 296.82 55.8131 288.257 32.8861C287.831 31.7461 288.107 30.4471 289.004 29.6261C314.406 6.41006 351.467 5.12406 385.339 10.8731C389.179 11.5231 391.999 14.8531 391.999 18.7531C391.999 20.1731 391.689 53.5931 364.869 76.2431Z" fill="white"/>
<ellipse cx="167.378" cy="291.939" rx="46.7946" ry="19.532" transform="rotate(-100 167.378 291.939)" fill="white"/>
<ellipse rx="46.7073" ry="19.4955" transform="matrix(-0.173648 0.984808 0.984808 0.173648 344.97 292.85)" fill="white"/>
</g>
<defs>
<clipPath id="clip0">
<rect width="512" height="512" fill="white" transform="matrix(-1 0 0 1 512 0)"/>
</clipPath>
</defs>
</svg>
