<svg viewBox="0 0 512 512" fill="none" xmlns="http://www.w3.org/2000/svg">
<path d="M471.383 72.5781C444.879 43.832 408.512 28 368.973 28C339.418 28 312.352 37.3438 288.523 55.7695C276.5 65.0703 265.605 76.4492 256 89.7305C246.398 76.4531 235.5 65.0703 223.473 55.7695C199.648 37.3438 172.582 28 143.027 28C103.488 28 67.1172 43.832 40.6133 72.5781C14.4258 100.988 0 139.801 0 181.871C0 225.172 16.1367 264.809 50.7812 306.613C81.7734 344.008 126.316 381.969 177.898 425.926C195.512 440.938 215.477 457.953 236.207 476.078C241.684 480.875 248.711 483.516 256 483.516C263.285 483.516 270.316 480.875 275.785 476.086C296.516 457.957 316.492 440.934 334.113 425.914C385.688 381.965 430.23 344.008 461.223 306.609C495.867 264.809 512 225.172 512 181.867C512 139.801 497.574 100.988 471.383 72.5781Z" fill="#FFABA4"/>
<path d="M21.333 220.801H90.368L150.08 89.4214C152.661 83.7508 161.387 79.9366 171.157 80.0008C180.97 80.1418 189.354 84.2758 191.509 90.0106L260.8 277.095L342.592 139.687C345.707 134.452 354.005 131.073 363.349 131.201C372.629 131.38 380.629 135.13 383.189 140.481L421.419 220.801H490.667C502.464 220.801 512 226.535 512 233.6C512 240.666 502.464 246.4 490.667 246.4H405.334C395.819 246.4 387.435 242.611 384.833 237.107L360.428 185.843L276.076 327.501C273.047 332.621 264.983 336 256.001 336C255.553 336 255.126 335.987 254.678 335.974C245.206 335.616 237.249 331.546 235.179 325.978L168.576 146.099L127.253 236.966C124.714 242.534 116.288 246.4 106.666 246.4H21.333C9.53601 246.4 0 240.666 0 233.6C0 226.535 9.53601 220.801 21.333 220.801Z" fill="white"/>
</svg>
