<svg width="512" height="512" viewBox="0 0 512 512" fill="none" xmlns="http://www.w3.org/2000/svg">
<g clip-path="url(#clip0)">
<path d="M346 61C337.709 61 331 67.709 331 76C331 84.291 337.709 91 346 91C370.814 91 391 111.186 391 136C391 144.291 397.709 151 406 151C414.291 151 421 144.291 421 136C421 111.186 441.186 91 466 91C474.291 91 481 84.291 481 76C481 67.709 474.291 61 466 61C441.186 61 421 39.814 421 15C421 6.709 414.291 0 406 0C397.709 0 391 6.709 391 15C391 39.814 370.814 61 346 61Z" fill="white"/>
<path d="M181 196C181 204.291 187.709 211 196 211C237.353 211 271 244.647 271 286C271 294.291 277.709 301 286 301C294.291 301 301 294.291 301 286C301 244.647 334.647 211 376 211C384.291 211 391 204.291 391 196C391 187.709 384.291 181 376 181C334.647 181 301 147.353 301 106C301 97.709 294.291 91 286 91C277.709 91 271 97.709 271 106C271 147.353 237.353 181 196 181C187.709 181 181 187.709 181 196Z" fill="white"/>
<path d="M256 512C382.738 512 494.71 416.283 511.864 290.702C512.801 283.759 508.832 277.108 502.299 274.633C495.736 272.157 488.354 274.53 484.501 280.375C450.97 330.854 391.425 361 331 361C231.742 361 151 280.258 151 181C151 120.575 181.146 61.013 231.624 27.483C237.455 23.616 239.842 16.233 237.367 9.68497C234.891 3.15197 228.212 -0.745025 221.298 0.119975C95.717 17.273 0 129.262 0 256C0 396.61 115.39 512 256 512Z" fill="#94BFFF"/>
</g>
<defs>
<clipPath id="clip0">
<rect width="512" height="512" fill="white"/>
</clipPath>
</defs>
</svg>
